<svg id="Layer_1" viewBox="0 0 24 24" xmlns="http://www.w3.org/2000/svg" data-name="Layer 1"><path d="m23.983 21.862-5.678-5.678c1.346-1.704 2.157-3.849 2.157-6.184 0-5.514-4.486-10-10-10s-10 4.486-10 10 4.486 10 10 10c2.098 0 4.046-.653 5.656-1.762l5.745 5.745 2.121-2.121zm-9.521-10.954v3.092h-2c0-1-.5-2-2-2h-1.962l.878 2c.195.438.155.94-.106 1.342s-.703.642-1.183.642h-.55l-1.91-4.688c-.106-.244-.167-.513-.167-.796v-1.5c0-1.105.895-2 2-2h3c1.5 0 2-1 2-2h2v3.092c.581.207 1 .757 1 1.408s-.419 1.201-1 1.408z"/></svg>