<?xml version="1.0" encoding="iso-8859-1"?>
<!-- Uploaded to: SVG Repo, www.svgrepo.com, Generator: SVG Repo Mixer Tools -->
<svg height="800px" width="800px" version="1.1" id="Layer_1" xmlns="http://www.w3.org/2000/svg" xmlns:xlink="http://www.w3.org/1999/xlink" 
	 viewBox="0 0 503.467 503.467" xml:space="preserve">
<path style="fill:#ECF4F7;" d="M115.2,89.6c28.16,0,51.2,23.04,51.2,51.2S143.36,192,115.2,192S64,168.96,64,140.8
	S87.04,89.6,115.2,89.6z M55.467,243.2c23.893,0,42.667,18.773,42.667,42.667c0,23.893-18.773,42.667-42.667,42.667
	S12.8,309.76,12.8,285.867C12.8,261.973,31.573,243.2,55.467,243.2z M405.333,413.867c9.387,0,17.067,7.68,17.067,17.067
	S414.72,448,405.333,448s-17.067-7.68-17.067-17.067S395.947,413.867,405.333,413.867z M465.067,260.267
	c14.507,0,25.6,11.093,25.6,25.6c0,14.507-11.093,25.6-25.6,25.6c-14.507,0-25.6-11.093-25.6-25.6
	C439.467,271.36,450.56,260.267,465.067,260.267z M405.333,106.667c18.773,0,34.133,15.36,34.133,34.133
	s-15.36,34.133-34.133,34.133c-18.773,0-34.133-15.36-34.133-34.133S386.56,106.667,405.333,106.667z M260.267,4.267
	C293.547,4.267,320,30.72,320,64s-26.453,59.733-59.733,59.733S200.533,97.28,200.533,64S226.987,4.267,260.267,4.267z
	 M260.267,482.133c5.12,0,8.533,4.267,8.533,8.533s-3.413,8.533-8.533,8.533c-5.12,0-8.533-4.267-8.533-8.533
	S255.147,482.133,260.267,482.133z"/>
<path style="fill:#51565F;" d="M260.267,503.467L260.267,503.467c-6.827,0-12.8-5.973-12.8-12.8s5.973-12.8,12.8-12.8
	c6.827,0,12.8,5.973,12.8,12.8S267.093,503.467,260.267,503.467z M260.267,486.4c-2.56,0-4.267,1.707-4.267,4.267
	c0,2.56,1.707,4.267,4.267,4.267s4.267-1.707,4.267-4.267C264.533,488.107,262.827,486.4,260.267,486.4z M405.333,452.267
	c-11.947,0-21.333-9.387-21.333-21.333c0-11.947,9.387-21.333,21.333-21.333c11.947,0,21.333,9.387,21.333,21.333
	C426.667,442.88,417.28,452.267,405.333,452.267z M405.333,418.133c-6.827,0-12.8,5.973-12.8,12.8s5.973,12.8,12.8,12.8
	s12.8-5.973,12.8-12.8S412.16,418.133,405.333,418.133z M55.467,332.8c-25.6,0-46.933-21.333-46.933-46.933l0,0
	c0-12.8,5.12-24.747,13.653-33.28s20.48-13.653,33.28-13.653l0,0c12.8,0,24.747,5.12,33.28,13.653s13.653,20.48,13.653,33.28
	C102.4,311.467,81.067,332.8,55.467,332.8z M17.067,285.867c0,21.333,17.067,38.4,38.4,38.4s38.4-17.067,38.4-38.4
	c0-10.24-4.267-19.627-11.093-27.307c-7.68-6.827-17.067-11.093-27.307-11.093l0,0c-10.24,0-19.627,4.267-27.307,11.093
	C21.333,266.24,17.067,275.627,17.067,285.867L17.067,285.867z M465.067,315.733c-16.213,0-29.867-13.653-29.867-29.867
	c0-16.213,13.653-29.867,29.867-29.867c16.213,0,29.867,13.653,29.867,29.867C494.933,302.08,481.28,315.733,465.067,315.733z
	 M465.067,264.533c-11.947,0-21.333,9.387-21.333,21.333c0,11.947,9.387,21.333,21.333,21.333c11.947,0,21.333-9.387,21.333-21.333
	C486.4,273.92,477.013,264.533,465.067,264.533z M115.2,196.267c-30.72,0-55.467-24.747-55.467-55.467S84.48,85.333,115.2,85.333
	s55.467,24.747,55.467,55.467S145.92,196.267,115.2,196.267z M115.2,93.867c-25.6,0-46.933,21.333-46.933,46.933
	S89.6,187.733,115.2,187.733s46.933-21.333,46.933-46.933S140.8,93.867,115.2,93.867z M405.333,179.2
	c-21.333,0-38.4-17.067-38.4-38.4s17.067-38.4,38.4-38.4c21.333,0,38.4,17.067,38.4,38.4S426.667,179.2,405.333,179.2z
	 M405.333,110.933c-16.213,0-29.867,13.653-29.867,29.867s13.653,29.867,29.867,29.867c16.213,0,29.867-13.653,29.867-29.867
	S421.547,110.933,405.333,110.933z M260.267,128c-34.987,0-64-29.013-64-64s29.013-64,64-64c34.987,0,64,29.013,64,64
	S295.253,128,260.267,128z M260.267,8.533C229.547,8.533,204.8,33.28,204.8,64s24.747,55.467,55.467,55.467
	S315.733,94.72,315.733,64S290.987,8.533,260.267,8.533z"/>
</svg>